<?xml version="1.0" encoding="UTF-8"?>
<svg id="Layer_1" xmlns="http://www.w3.org/2000/svg" version="1.1" viewBox="0 0 1200 252">
  <!-- Generator: Adobe Illustrator 29.1.0, SVG Export Plug-In . SVG Version: 2.1.0 Build 142)  -->
  <defs>
    <style>
      .st0 {
        opacity: 1;
      }

      .st0, .st1, .st2, .st3, .st4, .st5, .st6, .st7 {
        fill: #fff;
        fill-rule: evenodd;
        isolation: isolate;
      }

      .st1 {
        opacity: 1;
      }

      .st2 {
        opacity: 1;
      }

      .st3 {
        opacity: 1;
      }

      .st4 {
        opacity: 1;
      }

      .st5 {
        opacity: 1;
      }

      .st6 {
        opacity: 1;
      }

      .st7 {
        opacity: 1;
      }
    </style>
  </defs>
  <path class="st0" d="M64.5-.5h21c37.9,2.9,58.5,23.2,62,61h-38c-2.6-17.1-12.6-26.3-30-27.5-10.6-1.6-20.6,0-30,5-13.7,14.5-11.4,25.9,7,34,22,6.3,44,12.7,66,19,16,5.6,26,16.6,30,33,5.7,44.9-13.9,69.9-59,75-17.6,1.6-34.9.2-52-4C18,187,4,170.8-.5,146.5v-11h39c1.5,13.4,8.5,22.5,21,27.5,15.6,5.2,30.9,4.5,46-2,8.8-6.8,11.3-15.3,7.5-25.5-4.4-6-10.3-10.1-17.5-12.5-4.9-2.1-9.9-3.7-15-5-19.3-3.2-38-8.5-56-16C10.7,93,3.2,80.1,2,63.5-.2,31.7,14,11.6,44.5,3c6.8-1.5,13.4-2.7,20-3.5Z"/>
  <path class="st7" d="M593.5,5.5c7.7-.2,15.3,0,23,.5,9.4,2,14.5,7.9,15.5,17.5.5,8.7.7,17.3.5,26h22v39h-23v107c-8.8.4-17.4,0-26-1.5-6.6-3-10.4-8.2-11.5-15.5-.5-57.7-.7-115.3-.5-173Z"/>
  <path class="st0" d="M184.5,251.5h-24c-.2-47,0-94,.5-141,.5-15.2,4.9-29.2,13-42,8.9-10.5,20-17.4,33.5-20.5,26.8-7.2,51.1-2.6,73,14,11.9,13.1,18.4,28.6,19.5,46.5,3.1,24.3-1.6,47-14,68-14.7,19.5-34.2,27-58.5,22.5-9.8-1.4-18.8-4.9-27-10.5-.8,16-1.3,32-1.5,48-2.4,7.5-7.2,12.5-14.5,15ZM224.5,79.5c15.2-1.7,26,4.3,32.5,18,6.5,18.6,5.8,37-2,55-11.2,14.9-25.1,17.8-41.5,8.5-8.1-7.4-12.6-16.5-13.5-27.5-2-14.8.4-28.8,7-42,4.4-6.2,10.2-10.2,17.5-12Z"/>
  <path class="st6" d="M948.5,44.5c15.9-.3,30.9,3.2,45,10.5,1.2,1.5,2.7,2.7,4.5,3.5,7-6.1,15.2-9.9,24.5-11.5,27.6-5.4,53.2-.7,77,14,3.2,2.9,6,6,8.5,9.5.5,42,.7,84,.5,126-8.3.2-16.7,0-25-.5-7.8-1-13-5.1-15.5-12.5,0-30.4-.7-60.7-2-91-1.3-5.6-4.4-9.8-9.5-12.5-11.6-5-22.6-4-33,3-3.3,3.5-5.5,7.7-6.5,12.5-.5,33.7-.7,67.3-.5,101h-39c.5-34.4,0-68.7-1.5-103-3.9-11.3-11.9-16.9-24-17-12.1,0-20.1,5.7-24,17-1.5,34.3-2,68.6-1.5,103h-39c-.2-33.7,0-67.3.5-101,3.1-24.7,16.6-40.6,40.5-47.5,6.8-1.5,13.4-2.7,20-3.5Z"/>
  <path class="st3" d="M364.5,45.5c16.8-1.5,32.8,1.4,48,8.5,14.4,8.6,23.5,21.1,27.5,37.5,3.1,13.5,4.6,27.1,4.5,41h-96c2.9,28.4,18.2,38.9,46,31.5,7-2.5,11.4-7.4,13-14.5h34c-5.4,25.9-21.1,41.7-47,47.5-22,5-42.4,1.4-61-11-15.2-13.3-23.4-30.1-24.5-50.5-2.1-18.2,0-35.8,6-53,9.6-21.7,26.1-34,49.5-37ZM370.5,78.5c20.6-1.4,31.6,8.3,33,29h-55c.7-15,8-24.6,22-29Z"/>
  <path class="st2" d="M509.5,45.5c20.9-2.3,39.5,2.9,56,15.5,9.3,9.1,15.6,19.9,19,32.5-13.3,1.3-26.7,1.3-40,0-6.7-12.3-17-17.2-31-14.5-9.6,2.3-16.1,8.1-19.5,17.5-4.6,16.7-4.6,33.3,0,50,7.1,16.6,19.6,22.8,37.5,18.5,8.1-2.1,13.8-7.1,17-15,12.3-.5,24.7-.7,37-.5-9.3,32.8-31.2,49.2-65.5,49-33.9.4-55.6-15.6-65-48-4.9-22.6-3.9-44.9,3-67,10-22.6,27.1-35.2,51.5-38Z"/>
  <path class="st5" d="M723.5,48.5h15v40c-9.5-.5-18.8.3-28,2.5-10.1,5.4-15.3,13.9-15.5,25.5-.5,26.3-.7,52.7-.5,79h-39c-.2-28,0-56,.5-84,2.6-30.9,18.8-50.7,48.5-59.5,6.4-1.4,12.8-2.6,19-3.5Z"/>
  <path class="st1" d="M748.5,48.5h40c-.2,33.7,0,67.3.5,101,3.4,12.1,11.4,18.1,24,18,11.8.2,19.8-5.1,24-16,1.3-29.3,2-58.6,2-88,1.5-8.2,6.4-13,14.5-14.5,8-.5,16-.7,24-.5.2,33,0,66-.5,99-2.6,27.6-17.4,44.1-44.5,49.5-20.1,3.7-39.5,1.4-58-7-16.1-10.7-24.6-25.9-25.5-45.5-.5-32-.7-64-.5-96Z"/>
  <path class="st4" d="M1199.5,133.5v2c-26.7,20.5-53.5,40.8-80.5,61-.8-41-.7-82,.5-123,26.7,20,53.4,40,80,60Z"/>
</svg>